<mxfile host="app.diagrams.net" agent="Mozilla/5.0 (Windows NT 10.0; Win64; x64) AppleWebKit/537.36 (KHTML, like Gecko) Chrome/130.0.0.0 YaBrowser/24.12.0.0 Safari/537.36" version="25.0.3">
  <diagram name="Страница — 1" id="Qg7TNX0esdktX7MQRUZs">
    <mxGraphModel dx="1195" dy="1591" grid="1" gridSize="10" guides="1" tooltips="1" connect="1" arrows="1" fold="1" page="1" pageScale="1" pageWidth="827" pageHeight="900" math="0" shadow="0">
      <root>
        <mxCell id="0" />
        <mxCell id="1" parent="0" />
        <mxCell id="b8q81cn3WwMqUTTSJ5ZS-9" value="Client" style="swimlane;fontStyle=1;align=center;verticalAlign=top;childLayout=stackLayout;horizontal=1;startSize=26;horizontalStack=0;resizeParent=1;resizeParentMax=0;resizeLast=0;collapsible=1;marginBottom=0;whiteSpace=wrap;html=1;" parent="1" vertex="1">
          <mxGeometry x="510" y="380" width="410" height="190" as="geometry" />
        </mxCell>
        <mxCell id="b8q81cn3WwMqUTTSJ5ZS-10" value="&lt;div&gt;- ClientID: int&lt;/div&gt;&lt;div&gt;- LastName: string&lt;/div&gt;&lt;div&gt;- FirstName: str&lt;span style=&quot;background-color: initial;&quot;&gt;ing&lt;/span&gt;&lt;/div&gt;&lt;div&gt;- MiddleName: str&lt;span style=&quot;background-color: initial;&quot;&gt;ing&lt;/span&gt;&lt;/div&gt;&lt;div&gt;&lt;span style=&quot;background-color: initial;&quot;&gt;- Address: str&lt;/span&gt;&lt;span style=&quot;background-color: initial;&quot;&gt;ing&lt;/span&gt;&lt;/div&gt;&lt;div&gt;- Phone: str&lt;span style=&quot;background-color: initial;&quot;&gt;ing&lt;/span&gt;&lt;/div&gt;" style="text;strokeColor=none;fillColor=none;align=left;verticalAlign=top;spacingLeft=4;spacingRight=4;overflow=hidden;rotatable=0;points=[[0,0.5],[1,0.5]];portConstraint=eastwest;whiteSpace=wrap;html=1;" parent="b8q81cn3WwMqUTTSJ5ZS-9" vertex="1">
          <mxGeometry y="26" width="410" height="94" as="geometry" />
        </mxCell>
        <mxCell id="b8q81cn3WwMqUTTSJ5ZS-11" value="" style="line;strokeWidth=1;fillColor=none;align=left;verticalAlign=middle;spacingTop=-1;spacingLeft=3;spacingRight=3;rotatable=0;labelPosition=right;points=[];portConstraint=eastwest;strokeColor=inherit;" parent="b8q81cn3WwMqUTTSJ5ZS-9" vertex="1">
          <mxGeometry y="120" width="410" height="10" as="geometry" />
        </mxCell>
        <mxCell id="b8q81cn3WwMqUTTSJ5ZS-12" value="&lt;div&gt;+__init__(client_id, last_name, first_name, middle_name, address, phone)&lt;/div&gt;&lt;div&gt;+ to_dict(): dict&lt;div&gt;+ from_dict(data: Map):&amp;nbsp;&lt;span style=&quot;background-color: initial;&quot;&gt;Client&lt;/span&gt;&lt;/div&gt;&lt;/div&gt;" style="text;strokeColor=none;fillColor=none;align=left;verticalAlign=top;spacingLeft=4;spacingRight=4;overflow=hidden;rotatable=0;points=[[0,0.5],[1,0.5]];portConstraint=eastwest;whiteSpace=wrap;html=1;" parent="b8q81cn3WwMqUTTSJ5ZS-9" vertex="1">
          <mxGeometry y="130" width="410" height="60" as="geometry" />
        </mxCell>
        <mxCell id="mC3Z1bk-kpkZX3rgGwqh-53" style="rounded=0;orthogonalLoop=1;jettySize=auto;html=1;endArrow=blockThin;endFill=0;" edge="1" parent="1" source="mC3Z1bk-kpkZX3rgGwqh-15" target="mC3Z1bk-kpkZX3rgGwqh-27">
          <mxGeometry relative="1" as="geometry" />
        </mxCell>
        <mxCell id="mC3Z1bk-kpkZX3rgGwqh-55" style="rounded=0;orthogonalLoop=1;jettySize=auto;html=1;endArrow=blockThin;endFill=0;" edge="1" parent="1" source="mC3Z1bk-kpkZX3rgGwqh-15" target="mC3Z1bk-kpkZX3rgGwqh-37">
          <mxGeometry relative="1" as="geometry" />
        </mxCell>
        <mxCell id="mC3Z1bk-kpkZX3rgGwqh-15" value="ClientRepJSON" style="swimlane;fontStyle=1;align=center;verticalAlign=top;childLayout=stackLayout;horizontal=1;startSize=26;horizontalStack=0;resizeParent=1;resizeParentMax=0;resizeLast=0;collapsible=1;marginBottom=0;whiteSpace=wrap;html=1;" vertex="1" parent="1">
          <mxGeometry x="224" y="30" width="400" height="110" as="geometry" />
        </mxCell>
        <mxCell id="mC3Z1bk-kpkZX3rgGwqh-17" value="" style="line;strokeWidth=1;fillColor=none;align=left;verticalAlign=middle;spacingTop=-1;spacingLeft=3;spacingRight=3;rotatable=0;labelPosition=right;points=[];portConstraint=eastwest;strokeColor=inherit;" vertex="1" parent="mC3Z1bk-kpkZX3rgGwqh-15">
          <mxGeometry y="26" width="400" height="8" as="geometry" />
        </mxCell>
        <mxCell id="mC3Z1bk-kpkZX3rgGwqh-18" value="&lt;div&gt;&lt;div&gt;+ load_data()&lt;/div&gt;&lt;div&gt;+ save_data()&lt;/div&gt;&lt;/div&gt;&lt;div&gt;+ get_k_n_short_list(k: int, n: int, filter_func: function, sort_func: function)&lt;/div&gt;&lt;div&gt;+ get_count(filter_func: function)&lt;/div&gt;" style="text;strokeColor=none;fillColor=none;align=left;verticalAlign=top;spacingLeft=4;spacingRight=4;overflow=hidden;rotatable=0;points=[[0,0.5],[1,0.5]];portConstraint=eastwest;whiteSpace=wrap;html=1;" vertex="1" parent="mC3Z1bk-kpkZX3rgGwqh-15">
          <mxGeometry y="34" width="400" height="76" as="geometry" />
        </mxCell>
        <mxCell id="mC3Z1bk-kpkZX3rgGwqh-62" style="edgeStyle=orthogonalEdgeStyle;rounded=0;orthogonalLoop=1;jettySize=auto;html=1;endArrow=diamondThin;endFill=0;" edge="1" parent="1" source="mC3Z1bk-kpkZX3rgGwqh-27" target="b8q81cn3WwMqUTTSJ5ZS-9">
          <mxGeometry relative="1" as="geometry" />
        </mxCell>
        <mxCell id="mC3Z1bk-kpkZX3rgGwqh-27" value="ClientRepositoryBase" style="swimlane;fontStyle=1;align=center;verticalAlign=top;childLayout=stackLayout;horizontal=1;startSize=26;horizontalStack=0;resizeParent=1;resizeParentMax=0;resizeLast=0;collapsible=1;marginBottom=0;whiteSpace=wrap;html=1;" vertex="1" parent="1">
          <mxGeometry x="545" y="-240" width="340" height="204" as="geometry" />
        </mxCell>
        <mxCell id="mC3Z1bk-kpkZX3rgGwqh-48" value="&lt;div&gt;- file_path: str&lt;/div&gt;&lt;div&gt;&lt;span style=&quot;background-color: initial;&quot;&gt;- clients: list&lt;/span&gt;&lt;/div&gt;" style="text;strokeColor=none;fillColor=none;align=left;verticalAlign=top;spacingLeft=4;spacingRight=4;overflow=hidden;rotatable=0;points=[[0,0.5],[1,0.5]];portConstraint=eastwest;whiteSpace=wrap;html=1;" vertex="1" parent="mC3Z1bk-kpkZX3rgGwqh-27">
          <mxGeometry y="26" width="340" height="44" as="geometry" />
        </mxCell>
        <mxCell id="mC3Z1bk-kpkZX3rgGwqh-29" value="" style="line;strokeWidth=1;fillColor=none;align=left;verticalAlign=middle;spacingTop=-1;spacingLeft=3;spacingRight=3;rotatable=0;labelPosition=right;points=[];portConstraint=eastwest;strokeColor=inherit;" vertex="1" parent="mC3Z1bk-kpkZX3rgGwqh-27">
          <mxGeometry y="70" width="340" height="8" as="geometry" />
        </mxCell>
        <mxCell id="mC3Z1bk-kpkZX3rgGwqh-30" value="&lt;div&gt;+ __init__(file_path: str)&lt;/div&gt;&lt;div&gt;&amp;nbsp; &amp;nbsp; + load_data()&lt;/div&gt;&lt;div&gt;&amp;nbsp; &amp;nbsp; + save_data()&lt;/div&gt;&lt;div&gt;&amp;nbsp; &amp;nbsp; + get_by_id(client_id: int): Client&lt;/div&gt;&lt;div&gt;&amp;nbsp; &amp;nbsp; + add(client: Client)&lt;/div&gt;&lt;div&gt;&amp;nbsp; &amp;nbsp; + replace_by_id(client_id: int, updated_client: Client): bool&lt;/div&gt;&lt;div&gt;&amp;nbsp; &amp;nbsp; + delete_by_id(client_id: int): bool&lt;/div&gt;&lt;div&gt;&amp;nbsp; &amp;nbsp; + display_all()&lt;/div&gt;" style="text;strokeColor=none;fillColor=none;align=left;verticalAlign=top;spacingLeft=4;spacingRight=4;overflow=hidden;rotatable=0;points=[[0,0.5],[1,0.5]];portConstraint=eastwest;whiteSpace=wrap;html=1;" vertex="1" parent="mC3Z1bk-kpkZX3rgGwqh-27">
          <mxGeometry y="78" width="340" height="126" as="geometry" />
        </mxCell>
        <mxCell id="mC3Z1bk-kpkZX3rgGwqh-60" style="rounded=0;orthogonalLoop=1;jettySize=auto;html=1;dashed=1;dashPattern=8 8;" edge="1" parent="1" source="mC3Z1bk-kpkZX3rgGwqh-37" target="b8q81cn3WwMqUTTSJ5ZS-9">
          <mxGeometry relative="1" as="geometry" />
        </mxCell>
        <mxCell id="mC3Z1bk-kpkZX3rgGwqh-37" value="FilterDecorator" style="swimlane;fontStyle=1;align=center;verticalAlign=top;childLayout=stackLayout;horizontal=1;startSize=26;horizontalStack=0;resizeParent=1;resizeParentMax=0;resizeLast=0;collapsible=1;marginBottom=0;whiteSpace=wrap;html=1;" vertex="1" parent="1">
          <mxGeometry x="434" y="235" width="190" height="84" as="geometry" />
        </mxCell>
        <mxCell id="mC3Z1bk-kpkZX3rgGwqh-39" value="" style="line;strokeWidth=1;fillColor=none;align=left;verticalAlign=middle;spacingTop=-1;spacingLeft=3;spacingRight=3;rotatable=0;labelPosition=right;points=[];portConstraint=eastwest;strokeColor=inherit;" vertex="1" parent="mC3Z1bk-kpkZX3rgGwqh-37">
          <mxGeometry y="26" width="190" height="8" as="geometry" />
        </mxCell>
        <mxCell id="mC3Z1bk-kpkZX3rgGwqh-40" value="&lt;div&gt;+ __init__(filter_func: function)&lt;/div&gt;&lt;div&gt;+ __call__(clients: list): list&lt;/div&gt;" style="text;strokeColor=none;fillColor=none;align=left;verticalAlign=top;spacingLeft=4;spacingRight=4;overflow=hidden;rotatable=0;points=[[0,0.5],[1,0.5]];portConstraint=eastwest;whiteSpace=wrap;html=1;" vertex="1" parent="mC3Z1bk-kpkZX3rgGwqh-37">
          <mxGeometry y="34" width="190" height="50" as="geometry" />
        </mxCell>
        <mxCell id="mC3Z1bk-kpkZX3rgGwqh-61" style="rounded=0;orthogonalLoop=1;jettySize=auto;html=1;dashed=1;dashPattern=8 8;" edge="1" parent="1" source="mC3Z1bk-kpkZX3rgGwqh-41" target="b8q81cn3WwMqUTTSJ5ZS-9">
          <mxGeometry relative="1" as="geometry" />
        </mxCell>
        <mxCell id="mC3Z1bk-kpkZX3rgGwqh-41" value="SortDecorator" style="swimlane;fontStyle=1;align=center;verticalAlign=top;childLayout=stackLayout;horizontal=1;startSize=26;horizontalStack=0;resizeParent=1;resizeParentMax=0;resizeLast=0;collapsible=1;marginBottom=0;whiteSpace=wrap;html=1;" vertex="1" parent="1">
          <mxGeometry x="770" y="235" width="190" height="76" as="geometry" />
        </mxCell>
        <mxCell id="mC3Z1bk-kpkZX3rgGwqh-43" value="" style="line;strokeWidth=1;fillColor=none;align=left;verticalAlign=middle;spacingTop=-1;spacingLeft=3;spacingRight=3;rotatable=0;labelPosition=right;points=[];portConstraint=eastwest;strokeColor=inherit;" vertex="1" parent="mC3Z1bk-kpkZX3rgGwqh-41">
          <mxGeometry y="26" width="190" height="8" as="geometry" />
        </mxCell>
        <mxCell id="mC3Z1bk-kpkZX3rgGwqh-44" value="&lt;div&gt;+ __init__(sort_func: function)&lt;/div&gt;&lt;div&gt;+ __call__(clients: list): list&lt;/div&gt;" style="text;strokeColor=none;fillColor=none;align=left;verticalAlign=top;spacingLeft=4;spacingRight=4;overflow=hidden;rotatable=0;points=[[0,0.5],[1,0.5]];portConstraint=eastwest;whiteSpace=wrap;html=1;" vertex="1" parent="mC3Z1bk-kpkZX3rgGwqh-41">
          <mxGeometry y="34" width="190" height="42" as="geometry" />
        </mxCell>
        <mxCell id="mC3Z1bk-kpkZX3rgGwqh-54" style="rounded=0;orthogonalLoop=1;jettySize=auto;html=1;endArrow=blockThin;endFill=0;" edge="1" parent="1" source="mC3Z1bk-kpkZX3rgGwqh-49" target="mC3Z1bk-kpkZX3rgGwqh-27">
          <mxGeometry relative="1" as="geometry" />
        </mxCell>
        <mxCell id="mC3Z1bk-kpkZX3rgGwqh-57" style="rounded=0;orthogonalLoop=1;jettySize=auto;html=1;endArrow=blockThin;endFill=0;" edge="1" parent="1" source="mC3Z1bk-kpkZX3rgGwqh-49" target="mC3Z1bk-kpkZX3rgGwqh-41">
          <mxGeometry relative="1" as="geometry" />
        </mxCell>
        <mxCell id="mC3Z1bk-kpkZX3rgGwqh-49" value="ClientRepJSON" style="swimlane;fontStyle=1;align=center;verticalAlign=top;childLayout=stackLayout;horizontal=1;startSize=26;horizontalStack=0;resizeParent=1;resizeParentMax=0;resizeLast=0;collapsible=1;marginBottom=0;whiteSpace=wrap;html=1;" vertex="1" parent="1">
          <mxGeometry x="770" y="30" width="400" height="110" as="geometry" />
        </mxCell>
        <mxCell id="mC3Z1bk-kpkZX3rgGwqh-51" value="" style="line;strokeWidth=1;fillColor=none;align=left;verticalAlign=middle;spacingTop=-1;spacingLeft=3;spacingRight=3;rotatable=0;labelPosition=right;points=[];portConstraint=eastwest;strokeColor=inherit;" vertex="1" parent="mC3Z1bk-kpkZX3rgGwqh-49">
          <mxGeometry y="26" width="400" height="8" as="geometry" />
        </mxCell>
        <mxCell id="mC3Z1bk-kpkZX3rgGwqh-52" value="&lt;div&gt;+ load_data()&lt;/div&gt;&lt;div&gt;&lt;span style=&quot;background-color: initial;&quot;&gt;+ save_data()&lt;/span&gt;&lt;/div&gt;&lt;div&gt;+ get_k_n_short_list(k: int, n: int, filter_func: function, sort_func: function)&lt;/div&gt;&lt;div&gt;+ get_count(filter_func: function)&lt;/div&gt;" style="text;strokeColor=none;fillColor=none;align=left;verticalAlign=top;spacingLeft=4;spacingRight=4;overflow=hidden;rotatable=0;points=[[0,0.5],[1,0.5]];portConstraint=eastwest;whiteSpace=wrap;html=1;" vertex="1" parent="mC3Z1bk-kpkZX3rgGwqh-49">
          <mxGeometry y="34" width="400" height="76" as="geometry" />
        </mxCell>
        <mxCell id="mC3Z1bk-kpkZX3rgGwqh-63" value="1" style="text;html=1;align=center;verticalAlign=middle;resizable=0;points=[];autosize=1;strokeColor=none;fillColor=none;" vertex="1" parent="1">
          <mxGeometry x="685" y="348" width="30" height="30" as="geometry" />
        </mxCell>
        <mxCell id="mC3Z1bk-kpkZX3rgGwqh-64" value="0..*" style="text;html=1;align=center;verticalAlign=middle;resizable=0;points=[];autosize=1;strokeColor=none;fillColor=none;" vertex="1" parent="1">
          <mxGeometry x="680" y="-42" width="40" height="30" as="geometry" />
        </mxCell>
      </root>
    </mxGraphModel>
  </diagram>
</mxfile>
